<svg width="25" height="24" viewBox="0 0 25 24" fill="none" xmlns="http://www.w3.org/2000/svg">
<path d="M20.221 9.97904C20.4217 9.89537 20.5514 9.85821 20.6706 9.73906C20.7899 9.61992 20.8569 9.45832 20.8569 9.28981C20.8569 9.12131 20.7899 8.95971 20.6706 8.84056C20.5514 8.72142 20.5112 8.65003 20.221 8.56494C19.9309 8.47986 5.82612 3.71157 5.82612 3.71157C5.60103 3.63457 5.35884 3.6222 5.12708 3.67588C4.89531 3.72956 4.68326 3.84714 4.51503 4.01524C4.3468 4.18334 4.22914 4.39522 4.17542 4.62681C4.1217 4.85841 4.13407 5.10041 4.21114 5.32532C4.21114 5.32532 9.09219 19.5289 9.15182 19.722C9.21145 19.9151 9.28837 20.0521 9.40761 20.1713C9.52685 20.2904 9.68857 20.3574 9.8572 20.3574C10.0258 20.3574 10.1876 20.2904 10.3068 20.1713C10.426 20.0521 10.4533 19.9846 10.5427 19.722C10.6321 19.4594 13.0363 12.53 13.0363 12.53C13.0363 12.53 20.0203 10.0627 20.221 9.97904Z" stroke="white" stroke-width="1.5" stroke-linecap="round" stroke-linejoin="round"/>
</svg>
