<svg width="108" height="18" viewBox="0 0 108 18" fill="none" xmlns="http://www.w3.org/2000/svg">
<path d="M9 0L11.0206 6.21885H17.5595L12.2694 10.0623L14.2901 16.2812L9 12.4377L3.70993 16.2812L5.73056 10.0623L0.440492 6.21885H6.97937L9 0Z" fill="#FFB84E"/>
<path d="M31.5 0L33.5206 6.21885H40.0595L34.7694 10.0623L36.7901 16.2812L31.5 12.4377L26.2099 16.2812L28.2306 10.0623L22.9405 6.21885H29.4794L31.5 0Z" fill="#FFB84E"/>
<path d="M54 0L56.0206 6.21885H62.5595L57.2694 10.0623L59.2901 16.2812L54 12.4377L48.7099 16.2812L50.7306 10.0623L45.4405 6.21885H51.9794L54 0Z" fill="#FFB84E"/>
<path d="M76.5 0L78.5206 6.21885H85.0595L79.7694 10.0623L81.7901 16.2812L76.5 12.4377L71.2099 16.2812L73.2306 10.0623L67.9405 6.21885H74.4794L76.5 0Z" fill="#FFB84E"/>
<path d="M99 0L101.021 6.21885H107.56L102.269 10.0623L104.29 16.2812L99 12.4377L93.7099 16.2812L95.7306 10.0623L90.4405 6.21885H96.9794L99 0Z" fill="#FFB84E"/>
</svg>
